<svg width="223" height="223" xmlns="http://www.w3.org/2000/svg" xml:space="preserve" version="1.1">

 <g>
  <title>Layer 1</title>
  <g id="svg_1">
   <path fill="#FFF5FF" id="svg_2" d="m223,94.5c0,-6.075 -4.925,-11 -11,-11l-63,0c-6.075,0 -11,4.925 -11,11l0,33c0,6.075 4.925,11 11,11l63,0c6.075,0 11,-4.925 11,-11l0,-33zm-53.485,29.467c-7.082,0 -12.823,-5.741 -12.823,-12.823c0,-7.082 5.741,-12.823 12.823,-12.823c7.082,0 12.823,5.741 12.823,12.823c0,7.081 -5.741,12.823 -12.823,12.823z"/>
   <path fill="#FFF5FF" id="svg_3" d="m123.509,68.5l81.491,0l0,-33c0,-8.271 -6.395,-15 -14.667,-15l-175,0c-8.271,0 -15.333,6.729 -15.333,15l0,152c0,8.271 7.062,15 15.333,15l175,0c8.271,0 14.667,-6.729 14.667,-15l0,-34l-81.342,0l-0.149,-85z"/>
  </g>
  <g id="svg_4"/>
  <g id="svg_5"/>
  <g id="svg_6"/>
  <g id="svg_7"/>
  <g id="svg_8"/>
  <g id="svg_9"/>
  <g id="svg_10"/>
  <g id="svg_11"/>
  <g id="svg_12"/>
  <g id="svg_13"/>
  <g id="svg_14"/>
  <g id="svg_15"/>
  <g id="svg_16"/>
  <g id="svg_17"/>
  <g id="svg_18"/>
 </g>
</svg>